<svg width="82" height="74" viewBox="0 0 82 74" fill="none" xmlns="http://www.w3.org/2000/svg">
<path d="M39.5326 8.36791C40.2311 7.0774 42.2495 7.0774 42.9481 8.36791L51.9912 25.0738C52.2686 25.5863 52.8048 25.9415 53.4251 26.0236L73.6461 28.7025C75.2081 28.9095 75.8319 30.6597 74.7015 31.6642L60.0695 44.6679C59.6207 45.0668 59.4158 45.6415 59.5218 46.2048L62.976 64.5663C63.2428 65.9847 61.6099 67.0664 60.2127 66.3967L42.1265 57.7276C41.5717 57.4616 40.9089 57.4616 40.3541 57.7276L22.2679 66.3967C20.8708 67.0664 19.2379 65.9847 19.5047 64.5663L22.9588 46.2048C23.0648 45.6415 22.86 45.0668 22.4111 44.6679L7.7791 31.6642C6.64879 30.6597 7.27251 28.9095 8.83456 28.7025L29.0555 26.0236C29.6758 25.9415 30.2121 25.5863 30.4895 25.0738L39.5326 8.36791Z" fill="#F94A77" stroke="#F94A77" stroke-width="2" stroke-linejoin="round"/>
<rect x="39.6172" y="2.21997" width="42.2056" height="66.6" fill="black"/>
</svg>
