<svg width="71" height="62" viewBox="0 0 71 62" fill="none" xmlns="http://www.w3.org/2000/svg">
<path d="M33.8745 2.36791C34.573 1.0774 36.5914 1.0774 37.29 2.36791L46.3331 19.0738C46.6105 19.5863 47.1467 19.9415 47.767 20.0236L67.988 22.7025C69.5501 22.9095 70.1738 24.6597 69.0435 25.6642L54.4114 38.6679C53.9626 39.0668 53.7578 39.6415 53.8637 40.2048L57.3179 58.5663C57.5847 59.9847 55.9518 61.0664 54.5546 60.3967L36.4685 51.7276C35.9136 51.4616 35.2508 51.4616 34.696 51.7276L16.6098 60.3967C15.2127 61.0664 13.5798 59.9847 13.8466 58.5663L17.3008 40.2048C17.4067 39.6415 17.2019 39.0668 16.7531 38.6679L2.12102 25.6642C0.990708 24.6597 1.61443 22.9095 3.17648 22.7025L23.3975 20.0236C24.0177 19.9415 24.554 19.5863 24.8314 19.0738L33.8745 2.36791Z" fill="#F94A77" stroke="#F94A77" stroke-width="2" stroke-linejoin="round"/>
</svg>
