<svg width="20" height="20" viewBox="0 0 20 20" fill="none" xmlns="http://www.w3.org/2000/svg">
<path d="M10.7984 4.79878C11.8983 4.98312 12.8975 5.50262 13.6951 6.29862C14.4927 7.09462 15.0091 8.09171 15.198 9.18936M10.9664 1.20001C12.9227 1.53098 14.7068 2.45686 16.1258 3.86871C17.5447 5.28475 18.4683 7.06528 18.7999 9.01758M17.2718 16.7849C17.2718 16.7849 16.2097 17.828 15.9494 18.1339C15.5254 18.5863 15.0259 18.8 14.371 18.8C14.308 18.8 14.2408 18.8 14.1779 18.7958C12.931 18.7162 11.7724 18.2302 10.9034 17.8155C8.52727 16.6676 6.44084 15.0379 4.70704 12.9724C3.27551 11.2506 2.31835 9.65857 1.68444 7.94926C1.29402 6.90608 1.15129 6.09332 1.21426 5.32665C1.25624 4.83648 1.44515 4.4301 1.79359 4.08237L3.22513 2.65376C3.43083 2.46104 3.64913 2.35631 3.86323 2.35631C4.12771 2.35631 4.34181 2.51551 4.47615 2.64957C4.48035 2.65376 4.48455 2.65795 4.48874 2.66214C4.74483 2.90094 4.98831 3.14812 5.24439 3.41205C5.37453 3.54612 5.50887 3.68018 5.64321 3.81843L6.78928 4.96216C7.23427 5.40625 7.23427 5.81681 6.78928 6.2609C6.66754 6.38239 6.54999 6.50389 6.42825 6.62119C6.07561 6.98149 6.35263 6.70504 5.9874 7.03182C5.979 7.0402 5.9706 7.04439 5.9664 7.05276C5.60537 7.41306 5.67254 7.76498 5.74811 8.00378C5.7523 8.01634 5.7565 8.02891 5.7607 8.04148C6.05876 8.76207 6.47857 9.44077 7.11667 10.2493L7.12087 10.2535C8.27953 11.6779 9.50117 12.7882 10.8487 13.6386C11.0209 13.7475 11.1972 13.8355 11.3651 13.9193C11.5162 13.9947 11.659 14.0659 11.7807 14.1414C11.7975 14.1497 11.8143 14.1623 11.8311 14.1707C11.9738 14.2419 12.1082 14.2754 12.2467 14.2754C12.5951 14.2754 12.8134 14.0576 12.8848 13.9863L13.7077 13.1652C13.8504 13.0227 14.0771 12.8509 14.3416 12.8509C14.6019 12.8509 14.816 13.0143 14.9461 13.1568C14.9503 13.161 14.9503 13.161 14.9545 13.1652L17.2676 15.4736C17.7 15.9009 17.2718 16.7849 17.2718 16.7849Z" stroke="black" stroke-width="1.5" stroke-linecap="round" stroke-linejoin="round"/>
</svg>
